Coordinates
version=1
nRows=11
nColumns=36
inDegrees=yes

Units are S.I. units (second, meters, Newtons, ...)
If the header above contains a line with 'inDegrees', this indicates whether rotational values are in degrees (yes) or radians (no).

endheader
time	pelvis_tilt	pelvis_list	pelvis_rotation	pelvis_tx	pelvis_ty	pelvis_tz	hip_flexion_r	hip_adduction_r	hip_rotation_r	knee_angle_r	knee_angle_r_beta	ankle_angle_r	subtalar_angle_r	mtp_angle_r	hip_flexion_l	hip_adduction_l	hip_rotation_l	knee_angle_l	knee_angle_l_beta	ankle_angle_l	subtalar_angle_l	mtp_angle_l	lumbar_extension	lumbar_bending	lumbar_rotation	arm_flex_r	arm_add_r	arm_rot_r	elbow_flex_r	pro_sup_r	arm_flex_l	arm_add_l	arm_rot_l	elbow_flex_l	pro_sup_l
      0.00000000	     -0.85384279	     -1.72912332	      5.56895449	      0.50491885	      0.98888953	      0.12936599	     -4.90775010	     -5.50536166	    -10.11264021	      2.22728668	      0.03887349	     13.00578062	      5.83671004	     -6.21510938	     -4.84981052	     -8.32593784	     -2.08921816	      0.29267343	      0.00510811	     24.59059880	     10.12136769	     -6.21510938	      8.03631009	      0.95952270	     -2.31965418	     23.41933154	     -8.70083030	     56.64421097	    123.05454531	     76.30536955	     22.94265289	     -3.52716082	     69.68586894	    120.62315925	     86.31740996
      0.01666670	     -0.66053054	     -0.97871898	      4.52005555	      0.50566250	      0.98784037	      0.12439571	     -4.68134051	     -6.83817372	     -8.96213983	      3.05778122	      0.05336835	     14.58369803	      6.04760813	     -6.65271203	     -5.53556134	     -7.41786194	     -2.68630239	      0.49087267	      0.00856734	     24.57141651	      9.38173572	     -6.65271203	      7.96420525	      0.75620935	     -1.20414027	     26.55276379	    -12.16982884	     67.41928541	    127.24730255	     94.56435813	     22.59130499	     -5.08674058	     64.66643246	    124.29586928	     99.30732394
      0.03333330	     -0.28772497	     -1.04873672	      4.29409933	      0.50076324	      0.98501503	      0.12780727	     -4.52656312	     -6.87260632	     -8.75953472	      3.83244788	      0.06688883	     15.53934098	      5.89794334	     -6.91164605	     -5.93378921	     -7.53965339	     -3.46239962	      0.75046386	      0.01309807	     24.97975646	      9.51564347	     -6.91164605	      7.58537679	      0.72411935	     -2.29814891	     27.48898514	     -9.97530842	     67.06284094	    126.95010836	     98.32802746	     22.96062792	     -5.71889180	     63.64142349	    124.97529191	    104.53289564
      0.05000000	     -0.27350280	     -0.93087734	      4.62671546	      0.50071229	      0.98722768	      0.12751160	     -4.42368490	     -7.15882363	     -9.58360448	      4.05667117	      0.07080227	     16.00515458	      6.14382097	     -7.24138033	     -5.66608272	     -7.48846268	     -3.72133061	      1.12966545	      0.01971638	     24.95855289	      9.45828355	     -7.24138033	      7.44684161	      0.31650665	     -3.29009497	     28.11499612	     -8.24357543	     67.08671722	    126.43438774	     98.68115655	     23.71503529	     -5.97490045	     63.20558668	    125.47174599	    105.11011033
      0.06666670	     -0.18143391	     -0.84141452	      4.78240169	      0.50704201	      0.98861396	      0.12495088	     -4.52018519	     -7.34171396	     -9.76520629	      4.29104136	      0.07489280	     16.50394016	      5.95486755	     -7.24297992	     -5.71351952	     -7.46010963	     -3.93154881	      1.38246169	      0.02412851	     24.91332752	      9.54084063	     -7.24297992	      7.34336633	      0.14767625	     -3.33819743	     28.02045935	     -7.61089591	     67.10719138	    126.10260922	     98.70744098	     24.03121758	     -5.75594517	     63.24033561	    125.49874691	    105.05107082
      0.08333330	     -0.12458048	     -0.68076681	      4.91117148	      0.50688955	      0.98839354	      0.12513648	     -4.62353661	     -7.61680143	    -10.18636113	      4.37480865	      0.07635482	     16.85100092	      5.94225458	     -7.32011884	     -5.74378521	     -7.36188466	     -4.43041704	      1.51266289	      0.02640095	     25.04566791	     10.26361106	     -7.32011884	      7.37848334	      0.01298102	     -3.36438338	     27.95329396	     -6.97499904	     66.87970445	    124.96685651	     98.39464067	     24.09099043	     -5.91707801	     63.41901200	    125.76524956	    102.84636027
      0.10000000	     -0.16822649	     -0.53667567	      5.13760315	      0.50672568	      0.98505069	      0.12487440	     -4.68120169	     -7.84817043	    -10.53264459	      4.38993299	      0.07661878	     17.10095287	      5.66127216	     -7.38452720	     -5.62620838	     -7.27261047	     -4.42908566	      1.66088305	      0.02898788	     25.03902198	     10.46355142	     -7.38452720	      7.48149533	     -0.12373285	     -3.27158439	     27.93190986	     -6.63267195	     66.32474775	    124.70557256	     97.52167134	     24.49542473	     -5.81050127	     63.54226768	    126.08321607	    101.20926875
      0.11666670	     -0.24358291	     -0.44382117	      5.32445575	      0.50673498	      0.98533623	      0.12497572	     -4.68906512	     -7.98615047	    -10.73022839	      4.42389256	      0.07721149	     17.22127345	      5.28477095	     -7.42928983	     -5.48812869	     -7.23848157	     -4.64268424	      1.80141423	      0.03144061	     24.99075842	     10.77921279	     -7.42928983	      7.58624140	     -0.23185209	     -3.12557086	     27.86138773	     -6.34830968	     66.12909992	    124.59891800	     96.91355135	     24.63826024	     -5.70799696	     63.62369159	    126.23020126	    100.56604028
      0.13333330	     -0.30470197	     -0.37216328	      5.44260676	      0.50666195	      0.98785513	      0.12468851	     -4.71442775	     -8.06213157	    -10.92387485	      4.44631164	      0.07760278	     17.21472246	      4.97303672	     -7.45190526	     -5.37846208	     -7.20082094	     -4.81020471	      1.89821688	      0.03313013	     24.90270881	     11.03997767	     -7.45190526	      7.58349198	     -0.32533631	     -2.97385236	     27.58196976	     -6.13541150	     66.24264286	    124.31331012	     96.19141427	     24.56632827	     -5.95013127	     63.98267949	    126.15869809	     99.76298983
      0.15000000	     -0.42431252	     -0.29944202	      5.61652759	      0.50664395	      0.98251653	      0.12485868	     -4.70242785	     -8.13112148	    -11.14233551	      4.40741340	      0.07692388	     17.24900539	      4.66507355	     -7.45694772	     -5.21636370	     -7.15260165	     -4.79036916	      1.91954650	      0.03350241	     24.72723527	     11.14001836	     -7.45694772	      7.63793694	     -0.42209150	     -3.02396572	     27.62956345	     -5.77400496	     66.15241192	    124.36772244	     95.28180629	     25.00209739	     -5.90216340	     64.05619364	    126.49743738	     98.95446436
      0.16666670	     -0.50239715	     -0.24639029	      5.77793158	      0.50682152	      0.98788448	      0.12470521	     -4.71182344	     -8.15906875	    -11.35148398	      4.38348838	      0.07650630	     17.25507882	      4.49194343	     -7.45730039	     -5.09338807	     -7.12455976	     -4.80546692	      1.90968967	      0.03333037	     24.50211436	     11.24441023	     -7.45730039	      7.58258797	     -0.50415147	     -2.96418342	     27.39776678	     -5.70720168	     66.31933770	    124.26592609	     95.25683462	     24.95303662	     -5.97298530	     64.40833653	    126.73011180	     98.93611387
